<svg width="128" height="22" viewBox="0 0 128 22" fill="none" xmlns="http://www.w3.org/2000/svg">
<path d="M3.77224 18.6462C4.26694 18.7392 4.91636 18.7392 5.78214 18.7392C8.22477 18.7392 10.4201 17.8426 10.4201 15.2758C10.4201 12.8336 8.28685 11.8437 5.6583 11.8437H3.77224V18.6462ZM3.77224 9.09182H5.72006C8.37937 9.09182 9.83238 7.85508 9.83238 6.09274C9.83238 4.11415 8.34849 3.21717 5.93674 3.21717C4.82339 3.21717 4.17441 3.27925 3.77224 3.3721V9.09182ZM0 0.867493C1.20588 0.619494 3.40126 0.403564 5.56577 0.403564C8.3485 0.403564 10.1108 0.774541 11.5022 1.73317C12.801 2.506 13.6667 3.86658 13.6667 5.66012C13.6667 7.57706 12.4608 9.30851 10.2034 10.1431V10.2361C12.3987 10.7928 14.4086 12.524 14.4086 15.3688C14.4086 17.2244 13.6046 18.6775 12.43 19.6975C10.9457 20.9651 8.5031 21.6144 4.66879 21.6144C2.56636 21.6144 0.989511 21.4602 0 21.3364V0.867493Z" fill="white"/>
<path d="M27.8873 12.6169L26.2484 7.48404C25.8466 6.21608 25.5065 4.79394 25.1968 3.58807H25.1355C24.8262 4.79394 24.4861 6.24739 24.146 7.48404L22.5378 12.6169H27.8873ZM21.9197 15.4924L20.1262 21.3981H16.1992L22.878 0.558105H27.7323L34.504 21.3981H30.3916L28.5055 15.4924H21.9197Z" fill="white"/>
<path d="M37.4102 21.3984H41.2133V0.558533H37.4102V21.3984Z" fill="white"/>
<path d="M49.5622 3.74268H43.625V0.558105H59.3637V3.74268H53.3653V21.3981H49.5622V3.74268Z" fill="white"/>
<path d="M73.4612 12.1529H65.6074V18.2752H74.389V21.3981H61.8047V0.558105H73.9251V3.68093H65.6074V9.06088H73.4612V12.1529Z" fill="white"/>
<path d="M81.4988 10.0509H83.7555C86.3223 10.0509 87.8991 8.68995 87.8991 6.6184C87.8991 4.36125 86.3223 3.27922 83.8488 3.27922C82.6429 3.27922 81.8698 3.37207 81.4988 3.46427V10.0509ZM77.7266 0.867462C79.1796 0.589017 81.2824 0.403534 83.4771 0.403534C86.4769 0.403534 88.4868 0.898345 89.9086 2.07334C91.0528 3.03165 91.7026 4.48509 91.7026 6.2782C91.7026 8.96807 89.8777 10.7928 87.8991 11.4727V11.5656C89.4142 12.1221 90.3109 13.5755 90.8056 15.5854C91.4859 18.1823 92.0427 20.5944 92.4445 21.3981H88.5489C88.2388 20.7799 87.7132 19.0792 87.1568 16.4817C86.5386 13.7607 85.5803 12.8949 83.4154 12.8336H81.4988V21.3981H77.7266V0.867462Z" fill="white"/>
<path d="M106.973 12.1529H99.1192V18.2752H107.9V21.3981H95.3164V0.558105H107.437V3.68093H99.1192V9.06088H106.973V12.1529Z" fill="white"/>
<path d="M111.242 0.558105H115.014V10.143H115.107C115.602 9.339 116.127 8.59706 116.622 7.88589L122.095 0.558105H126.764L119.59 9.43185L127.227 21.3962V21.3981H122.775L116.9 11.8436L115.014 14.0703V21.3981H111.242V0.558105Z" fill="white"/>
</svg>
