<svg width="92" height="93" viewBox="0 0 92 93" fill="none" xmlns="http://www.w3.org/2000/svg">
<path d="M91.4671 58.3434C91.4671 47.6996 81.8915 36.6417 78.4508 32.969C75.0547 29.3381 46.3972 0.172196 46.2317 0H46.2239C46.0582 0.172196 17.4018 29.3381 14.0051 32.969C10.5633 36.6417 0.988281 47.6996 0.988281 58.3434C0.988281 69.2953 5.73407 73.2442 9.87149 75.6393C15.05 78.623 23.945 78.2804 23.945 78.2804C23.945 78.2804 22.2891 80.0051 23.2773 81.5772C25.2834 84.7801 33.3275 83.457 39.4785 86.8839C44.5108 89.6914 46.2267 92.3876 46.2278 92.4034C46.2278 92.3876 47.9457 89.6914 52.9788 86.8839C59.1288 83.457 67.171 84.7801 69.1788 81.5772C70.1663 80.0051 68.5108 78.2804 68.5108 78.2804C68.5108 78.2804 77.406 78.623 82.5813 75.6393C86.7224 73.2442 91.4671 69.2953 91.4671 58.3434ZM87.6522 57.3228C87.9539 66.2268 84.2752 70.4271 80.3217 72.8623C75.0609 76.1083 68.502 76.1242 68.502 76.1242C68.502 76.1242 71.4418 73.7677 69.2047 71.8334C67.7787 70.8213 65.9356 71.5844 63.9994 72.1943C62.0638 72.8001 58.8549 72.2509 57.2878 71.6625C54.9832 70.7917 51.9752 69.5449 49.9288 65.7647C49.5662 65.0974 49.5225 64.9726 49.3872 65.0249C49.2834 65.0642 49.3308 65.0453 49.4367 65.8389C49.8156 68.6606 51.579 71.5632 53.5857 73.1248C56.9305 75.7279 59.5647 75.9245 60.0869 75.9601C59.5795 75.9314 56.8295 75.9661 54.526 76.3791C52.789 76.6939 51.5178 78.0745 51.5178 78.0745C51.5178 78.0745 52.7663 79.98 55.5628 80.238C58.407 80.4983 60.846 79.9537 60.846 79.9537C60.846 79.9537 56.5117 81.0211 53.1512 83.2172C49.9968 85.2795 47.2659 87.8635 46.2278 89.4062C46.2314 89.4099 46.2355 89.4182 46.2377 89.4221H46.2385H46.2162C46.2201 89.4182 46.2244 89.4099 46.2278 89.4062C45.189 87.8635 42.4614 85.2795 39.3041 83.2172C35.9445 81.0211 31.6061 79.9537 31.6061 79.9537C31.6061 79.9537 34.0476 80.4983 36.8928 80.238C39.6904 79.98 40.9367 78.0745 40.9367 78.0745C40.9367 78.0745 39.6663 76.6939 37.927 76.3791C35.6278 75.9661 32.875 75.9314 32.367 75.9601C32.8906 75.9245 35.5248 75.7279 38.871 73.1248C40.8754 71.5632 42.6402 68.6606 43.0174 65.8389C43.1257 65.0453 43.1709 65.0642 43.0682 65.0249C42.9316 64.9726 42.8892 65.0974 42.5266 65.7647C40.4814 69.5449 37.4711 70.7917 35.1687 71.6625C33.6017 72.2509 30.3916 72.8001 28.4571 72.1943C26.519 71.5844 24.6758 70.8213 23.2507 71.8334C21.0117 73.7677 23.9517 76.1242 23.9517 76.1242C23.9517 76.1242 17.3958 76.1083 12.1319 72.8623C8.17977 70.4271 4.49911 66.2268 4.80426 57.3228C5.11155 48.4197 13.4404 37.744 22.7362 28.386C31.6334 19.4254 45.152 5.29242 46.2278 4.12371C46.2244 4.12136 46.2192 4.11535 46.2162 4.11299H46.2385H46.2377C46.2355 4.11535 46.2306 4.12136 46.2278 4.12371C47.3032 5.29242 60.8224 19.4254 69.7204 28.386C79.0145 37.744 87.3443 48.4197 87.6522 57.3228Z" fill="#B69A61"/>
<path d="M82.7198 50.6006C83.6146 47.9808 81.892 46.7658 79.9614 46.9133C78.1822 47.0488 75.744 49.4802 75.744 49.4802C75.744 49.4802 78.161 44.1046 75.4663 41.1268C73.5072 38.9663 71.4777 39.1145 69.5196 39.3067C66.582 39.5957 65.2544 41.9393 65.2544 43.7602C65.2544 45.5812 66.8612 47.1781 68.6769 46.9133C69.5812 46.7825 70.7889 46.2189 70.9221 44.5334C71.0156 43.3684 70.4825 42.73 69.7984 42.4341C71.1104 41.6406 73.6849 42.9946 73.5904 45.0931C73.5117 46.8537 72.1169 49.4439 68.9108 49.5278C65.7043 49.6118 62.4978 47.4966 60.7634 46.7265C59.2085 46.0358 55.5953 45.4103 53.0403 46.7741C52.8769 46.8603 51.8004 47.2688 50.3158 48.5512C51.3187 47.256 52.3789 44.9441 50.5579 42.2012C49.1769 40.1207 49.7709 37.6932 50.0643 37.0788C51.0859 34.9396 52.65 34.2669 54.414 34.2669C57.0621 34.2669 58.3509 35.5848 58.5578 37.4003C58.6078 37.8497 58.4789 39.9929 56.8773 40.3795C53.88 41.105 53.5256 37.9012 53.3787 38.1039C52.7624 38.9526 53.1211 41.0921 53.5176 41.7071C54.4382 43.1355 55.8252 43.7269 57.0578 43.7269C57.9711 43.7269 59.8799 43.5727 61.0273 42.344C61.4251 41.9181 61.9248 41.3908 62.2898 39.9785C62.8428 37.8324 62.1538 36.286 61.6201 35.4827C62.3239 36.1331 63.9212 37.0911 67.3649 37.3458C70.9242 37.6122 73.8031 35.2542 73.8031 35.2542C73.8031 35.2542 71.197 34.9758 69.7534 34.2193C66.7169 32.6262 66.1302 30.9844 65.0254 29.5071C63.1411 26.9849 60.2785 26.568 58.4238 27.8261C56.5648 29.0858 57.4867 31.8394 57.4867 31.8394C57.4867 31.8394 55.8477 30.5744 53.1799 30.9996C49.137 31.6458 48.0434 35.932 48.0434 35.932C48.0434 35.932 48.3106 29.5063 51.3533 26.4267C55.272 22.4602 59.4521 24.3265 59.4521 24.3265C59.4521 24.3265 58.1107 21.2649 55.6601 20.4056C53.1323 19.5198 50.5673 20.355 48.2647 24.4673C49.1081 21.2469 50.6988 19.1475 50.5562 15.5882C50.422 12.175 46.4683 7.76669 46.2283 7.44524C45.9845 7.76905 42.0328 12.1765 41.8975 15.5882C41.7573 19.1475 43.3488 21.2469 44.1918 24.4673C41.8868 20.355 39.3223 19.5198 36.7936 20.4056C34.3436 21.2649 33.0023 24.3265 33.0023 24.3265C33.0023 24.3265 37.1832 22.4602 41.1019 26.4267C44.1442 29.5063 44.4116 35.932 44.4116 35.932C44.4116 35.932 43.3186 31.6458 39.2753 30.9996C36.6083 30.5744 34.9681 31.8394 34.9681 31.8394C34.9681 31.8394 35.8884 29.0858 34.0316 27.8261C32.175 26.568 29.3158 26.9849 27.4303 29.5071C26.3267 30.9844 25.7385 32.6262 22.7018 34.2193C21.2614 34.9758 18.6513 35.2542 18.6513 35.2542C18.6513 35.2542 21.5295 37.6122 25.0898 37.3458C28.534 37.0911 30.1309 36.1331 30.8345 35.4827C30.3025 36.286 29.6137 37.8324 30.1654 39.9785C30.5298 41.3908 31.0337 41.9181 31.4296 42.344C32.5753 43.5727 34.4851 43.7269 35.3965 43.7269C36.6311 43.7269 38.0161 43.1355 38.9378 41.7071C39.3336 41.0921 39.695 38.9526 39.0765 38.1039C38.9296 37.9012 38.5735 41.105 35.5775 40.3795C33.9761 39.9929 33.8474 37.8497 33.8974 37.4003C34.1034 35.5848 35.3918 34.2669 38.0408 34.2669C39.8046 34.2669 41.3693 34.9396 42.3903 37.0788C42.6856 37.6932 43.2783 40.1207 41.8969 42.2012C40.0735 44.9441 41.1367 47.256 42.1387 48.5512C40.6559 47.2688 39.5783 46.8603 39.4169 46.7741C36.8599 45.4103 33.2487 46.0358 31.6916 46.7265C29.9557 47.4966 26.7509 49.6118 23.5452 49.5278C20.3376 49.4439 18.9418 46.8537 18.8621 45.0931C18.7705 42.9946 21.3442 41.6406 22.6553 42.4341C21.9719 42.73 21.4379 43.3684 21.5314 44.5334C21.6663 46.2189 22.8753 46.7825 23.7794 46.9133C25.5953 47.1781 27.1993 45.5812 27.1993 43.7602C27.1993 41.9393 25.8745 39.5957 22.9366 39.3067C20.9749 39.1145 18.948 38.9663 16.99 41.1268C14.2938 44.1046 16.7089 49.4802 16.7089 49.4802C16.7089 49.4802 14.2739 47.0488 12.4955 46.9133C10.563 46.7658 8.84016 47.9808 9.73395 50.6006C10.53 52.9344 14.6498 52.4675 14.6498 52.4675C14.6498 52.4675 7.64872 54.607 7.86016 60.96C8.10849 68.3351 14.1815 71.0426 19.4376 71.9853C19.4376 71.9853 18.8087 70.5835 19.2193 69.6818C19.6992 68.6265 20.8366 68.0484 21.4456 67.8041C22.4919 67.3911 24.6833 67.7051 25.4638 67.4016C26.6694 66.9333 27.619 65.2079 27.619 65.2079C27.4665 65.9226 27.5248 66.8797 27.5248 67.3079C27.5248 69.1144 28.0794 70.4141 29.8982 70.4141C31.715 70.4141 32.6339 69.094 32.5251 67.7231C32.4169 66.3796 30.4311 64.3915 30.4311 64.3915C30.4311 64.3915 33.2588 67.3049 37.605 64.3915C39.7269 62.6153 40.171 60.7308 40.171 58.667C40.171 56.6065 38.614 54.5888 37.4476 53.7778C36.3992 53.0493 35.041 52.9442 34.1045 53.1651C32.6373 53.5138 31.6365 54.4631 31.6365 55.9642C31.6365 57.4612 32.5963 58.5823 34.1045 58.5975C36.6752 58.6224 36.8292 56.1615 36.8292 56.1615C36.8292 56.1615 38.2546 62.2272 33.1893 61.7074C30.0059 61.3814 29.0735 59.171 28.7411 56.5278C28.4139 53.9133 30.381 50.1799 34.5154 50.0096C38.5445 49.8441 39.5618 52.0758 40.9561 53.6197C41.308 54.013 42.2627 54.5903 42.7894 54.5594C44.4616 54.4541 44.0348 52.4304 44.6147 52.7422C46.2401 53.6242 43.0686 57.7381 43.9844 60.2119C44.1058 60.5333 45.4341 61.3527 45.4287 61.7953C45.3813 64.9233 45.1285 69.8739 44.1652 71.3643C43.5337 72.6231 41.9297 74.4801 41.9657 76.6189C42.0292 80.2788 45.2128 79.4995 45.2653 80.8333C45.2983 81.7048 43.3261 83.7474 43.3261 83.7474C43.3261 83.7474 45.5732 86.4193 46.2283 87.6933C46.8835 86.4193 49.1291 83.7474 49.1291 83.7474C49.1291 83.7474 47.1571 81.7048 47.1891 80.8333C47.2427 79.4995 50.4271 80.2788 50.4884 76.6189C50.5266 74.4801 48.9226 72.6231 48.2913 71.3643C47.3267 69.8739 47.0732 64.9233 47.0256 61.7953C47.0211 61.3527 48.349 60.5333 48.4718 60.2119C49.3849 57.7381 46.2142 53.6242 47.8407 52.7422C48.4204 52.4304 47.9928 54.4541 49.6678 54.5594C50.1938 54.5903 51.1461 54.013 51.5 53.6197C52.8945 52.0758 53.9124 49.8441 57.9411 50.0096C62.0755 50.1799 64.0413 53.9133 63.7141 56.5278C63.3817 59.171 62.4482 61.3814 59.2679 61.7074C54.2015 62.2272 55.626 56.1615 55.626 56.1615C55.626 56.1615 55.7804 58.6224 58.3509 58.5975C59.858 58.5823 60.8208 57.4612 60.8208 55.9642C60.8208 54.4631 59.817 53.5138 58.3509 53.1651C57.4149 52.9442 56.0543 53.0493 55.0059 53.7778C53.8414 54.5888 52.285 56.6065 52.285 58.667C52.285 60.7308 52.7283 62.6153 54.8482 64.3915C59.1965 67.3049 62.0224 64.3915 62.0224 64.3915C62.0224 64.3915 60.0392 66.3796 59.9331 67.7231C59.8224 69.094 60.7406 70.4141 62.5561 70.4141C64.375 70.4141 64.9312 69.1144 64.9312 67.3079C64.9312 66.8797 64.9896 65.9226 64.8373 65.2079C64.8373 65.2079 65.7845 66.9333 66.9914 67.4016C67.7726 67.7051 69.9614 67.3911 71.0085 67.8041C71.6177 68.0484 72.7566 68.6265 73.2372 69.6818C73.6463 70.5835 73.0206 71.9853 73.0206 71.9853C78.2737 71.0426 84.3469 68.3351 84.595 60.96C84.8069 54.607 77.8054 52.4675 77.8054 52.4675C77.8054 52.4675 81.9246 52.9344 82.7198 50.6006V50.6006ZM25.8387 62.6417C24.6108 64.5322 22.1087 64.4679 20.8952 63.7628C19.286 62.6039 20.0807 60.5402 20.0807 60.5402C20.0807 60.5402 18.2299 61.3853 17.646 62.5934C16.4297 65.1155 18.5468 66.3691 18.5468 66.3691C18.2307 66.4092 17.4463 66.5756 16.3497 66.5248C13.6196 66.3955 11.0609 64.9529 11.0609 60.957C11.0609 56.9626 13.7069 54.2892 17.3678 53.2612C19.1814 52.7536 22.1782 53.0274 23.2165 53.4949C21.9813 53.7544 20.5806 54.0357 20.0104 55.843C19.5961 57.1466 20.4571 59.0348 22.6564 58.7654C24.4547 58.5461 25.2657 57.1404 25.6527 56.1085C25.8683 56.4248 27.5677 59.9805 25.8387 62.6417V62.6417ZM81.3934 60.957C81.3934 64.9529 78.8382 66.3955 76.107 66.5248C75.0072 66.5756 74.2228 66.4092 73.9088 66.3691C73.9088 66.3691 76.0264 65.1155 74.8086 62.5934C74.2253 61.3853 72.3751 60.5402 72.3751 60.5402C72.3751 60.5402 73.1694 62.6039 71.5613 63.7628C70.3478 64.4679 67.8438 64.5322 66.6157 62.6417C64.8864 59.9805 66.5891 56.4248 66.8033 56.1085C67.1904 57.1404 68.0029 58.5461 69.7984 58.7654C71.999 59.0348 72.8574 57.1466 72.4461 55.843C71.8748 54.0357 70.4754 53.7544 69.2389 53.4949C70.2755 53.0274 73.2711 52.7536 75.0857 53.2612C78.7466 54.2892 81.3934 56.9626 81.3934 60.957V60.957ZM46.2393 87.7137C46.2367 87.7068 46.2316 87.7 46.2283 87.6933C46.2245 87.7 46.2191 87.7068 46.2159 87.7137H46.2393Z" fill="white"/>
</svg>
